# 3ds Max Wavefront OBJ Exporter v0.97b - (c)2007 guruware
# File Created: 20.11.2015 02:02:37

#
# object Box002
#

v  -0.5000 -0.5000 69.5000
v  -0.5000 -0.5000 0.5000
v  0.5000 -0.5000 0.5000
v  0.5000 -0.5000 69.5000
v  0.5000 0.5000 0.5000
v  -0.5000 0.5000 0.5000
v  -0.5000 0.5000 69.5000
v  0.5000 0.5000 69.5000
v  -0.5000 -0.5000 -0.5000
v  0.5000 0.5000 -0.5000
v  0.5000 -0.5000 -0.5000
v  69.5000 -0.5000 -0.5000
v  69.5000 0.5000 -0.5000
v  69.5000 0.5000 0.5000
v  69.5000 -0.5000 0.5000
v  -0.5000 0.5000 -0.5000
v  -0.5000 69.5000 -0.5000
v  -0.5000 69.5000 0.5000
v  0.5000 69.5000 0.5000
v  0.5000 69.5000 -0.5000
# 20 vertices

vn 0.0000 -1.0000 -0.0000
vn -0.0000 1.0000 0.0000
vn 1.0000 -0.0000 0.0000
vn 1.0000 0.0000 -0.0000
vn 0.0000 0.0000 1.0000
vn 0.0000 -1.0000 0.0000
vn -1.0000 -0.0000 0.0000
vn -1.0000 -0.0000 -0.0000
vn -0.0000 0.0000 -1.0000
vn 1.0000 0.0000 0.0000
vn -0.0000 1.0000 -0.0000
vn 0.0000 0.0000 -1.0000
vn 0.0000 -0.0000 1.0000
vn 1.0000 -0.0000 -0.0000
# 14 vertex normals

vt 0.8289 0.7849 0.0000
vt 0.8289 0.2134 0.0000
vt 0.1682 0.2136 0.0000
vt 0.1682 0.7852 0.0000
vt 0.4983 0.2136 0.0000
vt 0.4983 0.7851 0.0000
# 6 texture coords

g Box002
s off
f 1/1/1 2/1/1 3/2/1 
f 3/2/1 4/2/1 1/1/1 
f 5/2/2 6/1/2 7/1/2 
f 7/1/2 8/2/2 5/2/2 
f 3/2/3 5/1/3 8/1/3 
f 8/1/4 4/2/4 3/2/4 
f 1/2/5 4/2/5 8/1/5 
f 8/1/5 7/1/5 1/2/5 
f 2/1/6 9/1/6 3/2/6 
f 1/2/7 7/1/7 6/1/7 
f 6/1/8 2/2/8 1/2/8 
f 9/2/7 2/2/7 6/1/7 
f 9/3/9 10/4/9 11/3/9 
f 12/3/10 13/3/10 14/4/10 
f 14/4/10 15/4/10 12/3/10 
f 10/3/11 5/4/11 14/4/11 
f 14/4/2 13/3/2 10/3/2 
f 13/4/12 12/3/12 11/3/12 
f 11/3/9 10/4/9 13/4/9 
f 15/3/5 14/4/5 5/4/5 
f 5/4/5 3/3/5 15/3/5 
f 12/3/6 15/4/6 3/4/6 
f 3/4/6 11/3/6 12/3/6 
f 9/3/6 11/3/6 3/4/6 
f 9/5/7 6/6/7 16/5/7 
f 17/5/2 18/5/2 19/6/2 
f 19/6/2 20/6/2 17/5/2 
f 6/5/13 5/6/13 19/6/13 
f 19/6/13 18/5/13 6/5/13 
f 18/6/7 17/5/7 16/5/7 
f 16/5/7 6/6/7 18/6/7 
f 20/5/10 19/6/10 5/6/10 
f 5/6/14 10/5/14 20/5/14 
f 17/5/9 20/6/9 10/6/9 
f 10/6/9 16/5/9 17/5/9 
f 9/5/9 16/5/9 10/6/9 
# 36 faces

