# 3ds Max Wavefront OBJ Exporter v0.97b - (c)2007 guruware
# File Created: 26.08.2015 11:29:12

#
# object face001
#

v  0.0000 126.8431 0.0000
v  -0.0000 81.2626 -65.2596
v  -73.9996 81.2626 -29.6233
v  -92.2760 81.2626 0.0000
v  92.2760 81.2626 0.0000
v  73.9996 81.2626 -29.6233
v  -92.2760 -21.1560 -44.1982
v  -0.0000 -21.1560 -88.6360
v  -115.0662 -21.1560 0.0000
v  92.2760 -21.1560 -44.1982
v  115.0662 -21.1560 0.0000
v  0.0000 -115.2781 0.0000
v  59.1675 -15.1196 -61.5400
v  0.0691 -15.1196 -123.3424
v  -0.1510 81.0146 -67.1699
v  10.9277 36.3213 -75.9661
v  117.5298 53.4238 -53.1516
v  77.1682 118.2839 -39.6768
v  86.2947 84.0255 -75.1081
v  8.3068 -0.5984 -101.2281
v  112.8451 -27.7600 -50.7489
v  81.8589 40.6489 -62.5528
v  72.0892 20.5073 -98.9366
v  54.1538 28.9850 -64.3820
v  74.3817 40.8434 -63.8261
v  48.3081 38.8099 -63.9215
v  58.9479 36.5533 -71.3077
v  0.0632 2.5496 -74.7784
v  -60.6864 -15.1196 -61.5400
v  -11.6986 35.5993 -75.9749
v  -84.6298 114.0722 -40.4914
v  -119.8869 47.5651 -55.6596
v  -90.2010 79.7363 -76.5292
v  -8.3322 -0.8245 -100.6990
v  -85.0806 36.2788 -61.8833
v  -111.6156 -33.6221 -52.7654
v  -73.4283 17.3971 -98.7547
v  -56.5859 26.2706 -64.5092
v  -51.4800 36.3639 -64.0361
v  -77.6570 37.1167 -64.0008
v  -61.9076 33.5909 -71.4466
v  -59.0250 -37.1492 -48.1350
v  -35.4287 -64.3941 -74.2094
v  -35.4287 -71.5507 -58.2901
v  -0.0342 -65.8604 -80.3661
v  -0.0342 -77.9559 -63.9080
v  35.3603 -71.5507 -58.2901
v  35.3603 -64.3941 -74.2094
v  58.9567 -37.1492 -48.1350
v  35.3603 -55.8083 -64.3954
v  -0.0342 -55.5753 -71.0908
v  -35.4287 -36.9611 -67.3137
v  -35.4287 -50.8885 -82.0446
v  -11.8323 -31.8066 -75.5695
v  -11.8323 -46.8549 -89.1461
v  -0.0342 -39.3448 -73.3733
v  -0.0342 -45.8844 -84.6112
v  11.7640 -31.8066 -75.5695
v  11.7640 -46.8549 -89.1461
v  35.3603 -36.9611 -67.3137
v  35.3603 -50.8885 -82.0446
v  -35.4287 -55.8083 -64.3954
# 62 vertices

vn -0.2658 0.7903 -0.5520
vn -0.4272 0.8649 -0.2636
vn 0.4272 0.8649 -0.2636
vn 0.2658 0.7903 -0.5520
vn -0.4250 0.2014 -0.8825
vn -0.8362 0.1861 -0.5159
vn -0.8673 0.2184 -0.4472
vn 0.8300 0.2210 -0.5121
vn 0.8719 0.1940 -0.4496
vn 0.4250 0.2014 -0.8825
vn -0.3308 -0.6470 -0.6870
vn -0.6019 -0.7358 -0.3104
vn 0.6019 -0.7358 -0.3104
vn 0.3308 -0.6470 -0.6870
vn 0.6698 0.3758 -0.6405
vn -0.1550 -0.2925 0.9436
vn 0.2516 -0.3814 -0.8895
vn 0.7688 0.5472 -0.3310
vn -0.3807 0.6138 -0.6916
vn -0.4442 -0.0468 0.8947
vn 0.2226 -0.5882 -0.7775
vn 0.8567 0.3180 -0.4061
vn -0.2735 0.8708 -0.4086
vn -0.0000 -0.0468 0.9989
vn 0.4483 -0.7412 -0.4997
vn -0.0704 0.9211 -0.3829
vn -0.5855 -0.3133 -0.7477
vn -0.3366 -0.8849 0.3219
vn -0.6603 0.3778 -0.6491
vn 0.1451 -0.2925 0.9452
vn -0.2113 -0.3872 -0.8975
vn -0.7905 0.4998 -0.3540
vn 0.3671 0.6445 -0.6708
vn 0.4327 -0.0468 0.9003
vn -0.1855 -0.5777 -0.7949
vn -0.8673 0.2751 -0.4149
vn 0.2385 0.8929 -0.3819
vn 0.0000 -0.0468 0.9989
vn -0.4066 -0.7666 -0.4970
vn 0.0260 0.9237 -0.3823
vn 0.6044 -0.2707 -0.7493
vn 0.3285 -0.8876 0.3230
vn -0.8331 -0.5045 -0.2268
vn -0.5076 -0.7683 -0.3900
vn -0.5642 -0.7530 -0.3385
vn 0.0322 -0.8232 -0.5669
vn 0.0364 -0.8227 -0.5673
vn 0.5325 -0.7556 -0.3815
vn 0.4617 -0.8090 -0.3637
vn 0.8331 -0.5045 -0.2268
vn -0.0506 0.7445 -0.6657
vn 0.0282 0.7523 -0.6582
vn 0.0000 0.6896 -0.7241
vn 0.0000 0.6697 -0.7426
vn -0.3003 0.7020 -0.6458
vn -0.4301 0.6466 -0.6300
vn -0.3665 0.6761 -0.6392
vn -0.0390 0.7161 -0.6969
vn -0.0906 0.6806 -0.7271
vn 0.0916 0.8046 -0.5867
vn 0.1215 0.8042 -0.5818
vn -0.0255 0.6841 -0.7289
vn 0.0234 0.7209 -0.6927
vn 0.4417 0.6519 -0.6164
vn 0.3913 0.6528 -0.6486
vn 0.3003 0.7020 -0.6458
vn 0.0506 0.7445 -0.6657
vn -0.0282 0.7523 -0.6582
vn -0.3350 0.2378 0.9117
vn -0.6172 0.1986 0.7613
vn -0.4079 0.2497 0.8782
vn -0.2205 0.2683 0.9377
vn -0.2566 0.2979 0.9194
vn 0.2205 0.2683 0.9377
vn 0.2566 0.2979 0.9194
vn 0.4079 0.2497 0.8782
vn 0.3350 0.2378 0.9117
vn 0.6172 0.1986 0.7613
vn -0.0287 0.2380 0.9708
vn 0.0287 0.2380 0.9708
vn 0.6875 -0.6995 -0.1950
vn 0.4214 -0.8651 -0.2721
vn 0.1662 -0.9499 -0.2648
vn 0.0000 -0.8896 -0.4567
vn -0.0678 -0.9012 -0.4280
vn -0.4214 -0.8651 -0.2721
vn -0.1662 -0.9499 -0.2648
vn 0.0678 -0.9012 -0.4280
vn -0.6875 -0.6995 -0.1950
vn 0.0000 -0.8128 -0.5826
# 90 vertex normals

vt 0.2597 0.0044 0.0000
vt 0.2582 0.1389 0.0000
vt 0.1245 0.1158 0.0000
vt 0.0669 0.0944 0.0000
vt 0.4540 0.0975 0.0000
vt 0.3942 0.1184 0.0000
vt 0.0999 0.3087 0.0000
vt 0.1245 0.1251 0.0000
vt 0.2582 0.1481 0.0000
vt 0.2584 0.2938 0.0000
vt 0.0035 0.3254 0.0000
vt 0.0598 0.1036 0.0000
vt 0.1174 0.1251 0.0000
vt 0.0928 0.3087 0.0000
vt 0.4259 0.3088 0.0000
vt 0.4025 0.1276 0.0000
vt 0.4623 0.1068 0.0000
vt 0.5155 0.3254 0.0000
vt 0.3942 0.1276 0.0000
vt 0.4176 0.3088 0.0000
vt 0.2585 0.5171 0.0000
vt 0.0999 0.3226 0.0000
vt 0.2584 0.3077 0.0000
vt 0.0106 0.3393 0.0000
vt 0.4176 0.3227 0.0000
vt 0.5072 0.3393 0.0000
vt 0.1366 0.6577 0.0000
vt 0.0266 0.6281 0.0000
vt 0.1366 0.4554 0.0000
vt 0.9809 0.9442 0.0000
vt 0.7536 0.9965 0.0000
vt 0.7536 0.8065 0.0000
vt 0.2271 0.9707 0.0000
vt 0.1672 0.7881 0.0000
vt 0.2552 0.7344 0.0000
vt 0.2507 0.7253 0.0000
vt 0.1626 0.7790 0.0000
vt 0.0555 0.7463 0.0000
vt 0.0510 0.7536 0.0000
vt 0.1581 0.7863 0.0000
vt 0.2180 0.9689 0.0000
vt 0.7348 0.7958 0.0000
vt 0.5175 0.9277 0.0000
vt 0.5368 0.7395 0.0000
vt 0.2855 0.7546 0.0000
vt 0.3115 0.8936 0.0000
vt 0.4631 0.9694 0.0000
vt 0.4650 0.9867 0.0000
vt 0.3133 0.9109 0.0000
vt 0.2857 0.9921 0.0000
vt 0.2711 0.9875 0.0000
vt 0.3033 0.9109 0.0000
vt 0.2773 0.7719 0.0000
vt 0.4650 0.4572 0.0000
vt 0.4283 0.4383 0.0000
vt 0.4716 0.4360 0.0000
vt 0.5407 0.4579 0.0000
vt 0.5265 0.4767 0.0000
vt 0.4964 0.4806 0.0000
vt 0.5473 0.4911 0.0000
vt 0.0648 0.7249 0.0000
vt 0.0266 0.6421 0.0000
vt 0.1366 0.6718 0.0000
vt 0.1520 0.6577 0.0000
vt 0.1520 0.4555 0.0000
vt 0.2619 0.6283 0.0000
vt 0.5136 0.9437 0.0000
vt 0.7408 0.8057 0.0000
vt 0.7408 0.9957 0.0000
vt 0.4847 0.9614 0.0000
vt 0.5097 0.7197 0.0000
vt 0.4235 0.7795 0.0000
vt 0.4997 0.7060 0.0000
vt 0.3079 0.7394 0.0000
vt 0.4135 0.7658 0.0000
vt 0.3061 0.7521 0.0000
vt 0.4728 0.9605 0.0000
vt 0.4116 0.7786 0.0000
vt 0.7628 0.7979 0.0000
vt 0.9604 0.7402 0.0000
vt 0.9807 0.9284 0.0000
vt 0.0299 0.7690 0.0000
vt 0.1997 0.9834 0.0000
vt 0.0530 0.9074 0.0000
vt 0.1997 0.9925 0.0000
vt 0.0202 0.9924 0.0000
vt 0.0530 0.9166 0.0000
vt 0.0102 0.9905 0.0000
vt 0.0199 0.7763 0.0000
vt 0.0430 0.9147 0.0000
vt 0.4988 0.4595 0.0000
vt 0.4920 0.4384 0.0000
vt 0.5352 0.4402 0.0000
vt 0.4209 0.4620 0.0000
vt 0.4715 0.4869 0.0000
vt 0.4365 0.4798 0.0000
vt 0.4155 0.4913 0.0000
vt 0.2252 0.7258 0.0000
vt 0.1520 0.6717 0.0000
vt 0.2619 0.6423 0.0000
vt 0.5654 0.5657 0.0000
vt 0.6086 0.5399 0.0000
vt 0.6082 0.5680 0.0000
vt 0.6694 0.5312 0.0000
vt 0.6693 0.5687 0.0000
vt 0.7304 0.5680 0.0000
vt 0.7302 0.5399 0.0000
vt 0.7732 0.5660 0.0000
vt 0.7107 0.5864 0.0000
vt 0.7103 0.6021 0.0000
vt 0.6504 0.5991 0.0000
vt 0.6504 0.5805 0.0000
vt 0.7559 0.5794 0.0000
vt 0.8139 0.6359 0.0000
vt 0.8189 0.6104 0.0000
vt 0.8554 0.6575 0.0000
vt 0.8598 0.6299 0.0000
vt 0.8804 0.6489 0.0000
vt 0.8799 0.6351 0.0000
vt 0.9051 0.6583 0.0000
vt 0.9002 0.6308 0.0000
vt 0.9462 0.6359 0.0000
vt 0.9407 0.6105 0.0000
vt 1.0031 0.5782 0.0000
vt 0.5901 0.5864 0.0000
vt 0.5905 0.6021 0.0000
vt 0.7592 0.5983 0.0000
vt 0.5416 0.5983 0.0000
vt 0.6949 0.6244 0.0000
vt 0.7229 0.6120 0.0000
vt 0.6949 0.6772 0.0000
vt 0.6531 0.6224 0.0000
vt 0.6669 0.6927 0.0000
vt 0.6392 0.6927 0.0000
vt 0.6112 0.6772 0.0000
vt 0.6112 0.6244 0.0000
vt 0.5833 0.6120 0.0000
vt 0.6531 0.6811 0.0000
vt 0.9783 0.5445 0.0000
vt 0.9379 0.5696 0.0000
vt 0.9379 0.5968 0.0000
vt 0.8773 0.5799 0.0000
vt 0.8975 0.6077 0.0000
vt 0.8167 0.5696 0.0000
vt 0.8167 0.5968 0.0000
vt 0.8571 0.6077 0.0000
vt 0.7763 0.5445 0.0000
vt 0.8773 0.6007 0.0000
# 148 texture coords

g face001
s off
f 1/1/1 2/2/1 3/3/1 
f 1/1/2 3/3/2 4/4/2 
f 1/1/3 5/5/3 6/6/3 
f 1/1/4 6/6/4 2/2/4 
f 7/7/5 3/8/5 2/9/5 
f 2/9/5 8/10/5 7/7/5 
f 9/11/6 4/12/6 3/13/6 
f 3/13/7 7/14/7 9/11/7 
f 10/15/8 6/16/8 5/17/8 
f 5/17/9 11/18/9 10/15/9 
f 8/10/10 2/9/10 6/19/10 
f 6/19/10 10/20/10 8/10/10 
f 12/21/11 7/22/11 8/23/11 
f 12/21/12 9/24/12 7/22/12 
f 12/21/13 10/25/13 11/26/13 
f 12/21/14 8/23/14 10/25/14 
f 13/27/15 14/28/15 15/29/15 
s 1
f 16/30/16 17/31/16 18/32/16 
s off
f 16/33/17 19/34/17 17/35/17 
f 17/36/18 19/37/18 18/38/18 
f 18/39/19 19/40/19 16/41/19 
s 1
f 20/42/20 21/43/20 22/44/20 
s off
f 20/45/21 23/46/21 21/47/21 
f 21/48/22 23/49/22 22/50/22 
f 22/51/23 23/52/23 20/53/23 
s 1
f 24/54/24 25/55/24 26/56/24 
s off
f 24/57/25 27/58/25 25/59/25 
f 25/59/26 27/58/26 26/60/26 
f 26/60/27 27/58/27 24/57/27 
f 28/61/28 14/62/28 13/63/28 
f 29/64/29 15/65/29 14/66/29 
s 1
f 30/67/30 31/68/30 32/69/30 
s off
f 30/70/31 32/71/31 33/72/31 
f 32/73/32 31/74/32 33/75/32 
f 31/76/33 30/77/33 33/78/33 
s 1
f 34/79/34 35/80/34 36/81/34 
s off
f 34/82/35 36/83/35 37/84/35 
f 36/85/36 35/86/36 37/87/36 
f 35/88/37 34/89/37 37/90/37 
s 1
f 38/91/38 39/92/38 40/93/38 
s off
f 38/94/39 40/95/39 41/96/39 
f 40/95/40 39/97/40 41/96/40 
f 39/97/41 38/94/41 41/96/41 
f 28/98/42 29/99/42 14/100/42 
s 16
f 42/101/43 43/102/44 44/103/45 
f 43/102/44 45/104/46 46/105/47 
f 46/105/47 44/103/45 43/102/44 
f 47/106/48 48/107/49 49/108/50 
s 1
f 50/109/51 48/110/52 45/111/53 
f 45/111/53 51/112/54 50/109/51 
f 42/113/55 52/114/56 53/115/57 
f 52/114/56 54/116/58 55/117/59 
f 55/117/59 53/115/57 52/114/56 
f 54/116/58 56/118/60 57/119/61 
f 57/119/61 55/117/59 54/116/58 
f 56/118/60 58/120/62 59/121/63 
f 59/121/63 57/119/61 56/118/60 
f 58/120/62 60/122/64 61/123/65 
f 61/123/65 59/121/63 58/120/62 
f 60/122/64 49/124/66 61/123/65 
f 62/125/67 51/112/54 45/111/53 
f 45/111/53 43/126/68 62/125/67 
s 16
f 47/106/48 46/105/47 45/104/46 
f 45/104/46 48/107/49 47/106/48 
s 1
f 48/110/52 50/109/51 49/127/66 
f 42/128/55 62/125/67 43/126/68 
s 2
f 47/129/69 49/130/70 60/131/71 
f 46/132/72 47/129/69 60/131/71 
f 60/131/71 58/133/73 46/132/72 
s 4
f 46/132/74 54/134/75 52/135/76 
f 52/135/76 44/136/77 46/132/74 
f 44/136/77 52/135/76 42/137/78 
s 8
f 54/134/79 46/132/79 56/138/79 
s off
f 56/138/80 46/132/80 58/133/80 
s 8
f 49/139/81 50/140/82 61/141/83 
f 50/140/82 51/142/84 59/143/85 
f 59/143/85 61/141/83 50/140/82 
f 62/144/86 53/145/87 55/146/88 
f 55/146/88 51/142/84 62/144/86 
f 62/144/86 42/147/89 53/145/87 
f 55/146/88 57/148/90 51/142/84 
f 59/143/85 51/142/84 57/148/90 
# 82 faces

