# 3ds Max Wavefront OBJ Exporter v0.97b - (c)2007 guruware
# File Created: 26.08.2015 05:15:25

#
# object Star
#

v  0.4044 -57.7038 -0.0000
v  0.0000 0.0000 -33.0968
v  76.8488 -104.2295 -0.0000
v  55.0045 -17.4469 -0.0000
v  122.8757 40.8789 -0.0000
v  33.5903 46.9210 -0.0000
v  -0.9075 129.4940 -0.0000
v  -34.2446 46.4457 -0.0000
v  -123.4366 39.1528 -0.0000
v  -54.7546 -18.2160 -0.0000
v  -75.3805 -105.2963 -0.0000
v  0.0000 0.0000 33.0968
# 12 vertices

vn -0.2907 -0.4776 -0.8291
vn 0.5422 0.1365 -0.8291
vn 0.3644 -0.4240 -0.8291
vn 0.0377 0.5578 -0.8291
vn 0.5159 0.2155 -0.8291
vn -0.5188 0.2083 -0.8291
vn -0.0456 0.5572 -0.8291
vn -0.3584 -0.4291 -0.8291
vn -0.5440 0.1289 -0.8291
vn 0.2973 -0.4735 -0.8291
vn -0.2907 -0.4776 0.8291
vn 0.2973 -0.4735 0.8291
vn -0.5440 0.1289 0.8291
vn -0.3584 -0.4291 0.8291
vn -0.0456 0.5572 0.8291
vn -0.5188 0.2083 0.8291
vn 0.5159 0.2155 0.8291
vn 0.0377 0.5578 0.8291
vn 0.3644 -0.4240 0.8291
vn 0.5422 0.1365 0.8291
# 20 vertex normals

vt 0.3275 0.4925 0.0000
vt 0.3264 0.6539 0.0000
vt 0.1376 0.3903 0.0000
vt 0.1732 0.6030 0.0000
vt 0.0172 0.7520 0.0000
vt 0.2307 0.7839 0.0000
vt 0.3243 0.9783 0.0000
vt 0.4205 0.7852 0.0000
vt 0.6343 0.7562 0.0000
vt 0.4803 0.6050 0.0000
vt 0.5188 0.3928 0.0000
vt 0.6810 0.0123 0.0000
vt 0.6849 0.3366 0.0000
vt 0.5885 0.2072 0.0000
vt 0.3753 0.2401 0.0000
vt 0.5320 0.3883 0.0000
vt 0.4973 0.6013 0.0000
vt 0.6868 0.4980 0.0000
vt 0.8787 0.5967 0.0000
vt 0.8391 0.3846 0.0000
vt 0.9922 0.2326 0.0000
vt 0.7782 0.2048 0.0000
# 22 texture coords

g Star
s off
f 1/1/1 2/2/1 3/3/1 
f 3/3/2 2/2/2 4/4/2 
f 4/4/3 2/2/3 5/5/3 
f 5/5/4 2/2/4 6/6/4 
f 6/6/5 2/2/5 7/7/5 
f 7/7/6 2/2/6 8/8/6 
f 8/8/7 2/2/7 9/9/7 
f 9/9/8 2/2/8 10/10/8 
f 10/10/9 2/2/9 11/11/9 
f 11/11/10 2/2/10 1/1/10 
f 3/12/11 12/13/11 1/14/11 
f 1/14/12 12/13/12 11/15/12 
f 11/15/13 12/13/13 10/16/13 
f 10/16/14 12/13/14 9/17/14 
f 9/17/15 12/13/15 8/18/15 
f 8/18/16 12/13/16 7/19/16 
f 7/19/17 12/13/17 6/20/17 
f 6/20/18 12/13/18 5/21/18 
f 5/21/19 12/13/19 4/22/19 
f 4/22/20 12/13/20 3/12/20 
# 20 faces

